<svg xmlns="http://www.w3.org/2000/svg" viewBox="0 0 64 64"><defs><linearGradient id="g" x1="0" y1="0" x2="1" y2="1"><stop stop-color="#0f4f73"/><stop offset="1" stop-color="#17322f"/></linearGradient></defs><rect width="64" height="64" rx="15" fill="url(#g)"/><circle cx="46" cy="17" r="5" fill="#f3c56c"/><path d="M19 40 31 18v22H19Z" fill="#fff"/><path d="M34 22c5 4 9 10 11 18H34V22Z" fill="#dff7f3"/><path d="M15 43h34" stroke="#fff" stroke-width="2.5" stroke-linecap="round" opacity=".9"/><path d="M12 49c5-3 8 3 13 0s8 3 13 0 8 3 14 0" fill="none" stroke="#79d0c4" stroke-width="3.5" stroke-linecap="round"/><path d="M18 17h4v10l7-10h5l-8 11 9 12h-5l-8-11v11h-4V17Z" fill="#fff" opacity=".95"/></svg>